HIERARCHY
ROOT joint_0
{
	OFFSET -212.520721 0.000000 434.227997
	CHANNELS 6 Xposition Yposition Zposition Zrotation Yrotation Xrotation 
	JOINT joint_1
	{
		OFFSET 2.354145 88.354317 -0.841381
		CHANNELS 3 Zrotation Yrotation Xrotation
		JOINT joint_2
		{
			OFFSET 0.103458 1.857827 10.548503
			CHANNELS 3 Zrotation Yrotation Xrotation
			JOINT joint_3
			{
				OFFSET 43.499992 -0.000030 -0.000009
				CHANNELS 3 Zrotation Yrotation Xrotation
				JOINT joint_4
				{
					OFFSET 42.372177 0.000008 -0.000005
					CHANNELS 3 Zrotation Yrotation Xrotation
					JOINT joint_5
					{
						OFFSET 17.300001 0.000000 -0.000004
						CHANNELS 3 Zrotation Yrotation Xrotation
						End Site
						{
							OFFSET 0.000000 0.000000 0.000000
						}
					}
				}
			}
		}
		JOINT joint_6
		{
			OFFSET 0.103458 1.857823 -10.548501
			CHANNELS 3 Zrotation Yrotation Xrotation
			JOINT joint_7
			{
				OFFSET 43.500053 -0.000029 0.000010
				CHANNELS 3 Zrotation Yrotation Xrotation
				JOINT joint_8
				{
					OFFSET 42.372261 -0.000003 0.000013
					CHANNELS 3 Zrotation Yrotation Xrotation
					JOINT joint_9
					{
						OFFSET 17.299995 -0.000004 0.000004
						CHANNELS 3 Zrotation Yrotation Xrotation
						End Site
						{
							OFFSET 0.000000 0.000000 0.000000
						}
					}
				}
			}
		}
		JOINT joint_10
		{
			OFFSET 6.901969 -2.603732 -0.000000
			CHANNELS 3 Zrotation Yrotation Xrotation
			JOINT joint_11
			{
				OFFSET 12.588098 0.000005 -0.000001
				CHANNELS 3 Zrotation Yrotation Xrotation
				JOINT joint_12
				{
					OFFSET 12.343197 0.000003 -0.000000
					CHANNELS 3 Zrotation Yrotation Xrotation
					JOINT joint_13
					{
						OFFSET 25.832895 -0.000009 0.000001
						CHANNELS 3 Zrotation Yrotation Xrotation
						JOINT joint_14
						{
							OFFSET 11.766603 0.000006 0.000001
							CHANNELS 3 Zrotation Yrotation Xrotation
							End Site
							{
								OFFSET 0.000000 0.000000 0.000000
							}
						}
					}
					JOINT joint_15
					{
						OFFSET 19.745884 -1.480371 6.000109
						CHANNELS 3 Zrotation Yrotation Xrotation
						JOINT joint_16
						{
							OFFSET 11.284123 -0.000007 -0.000016
							CHANNELS 3 Zrotation Yrotation Xrotation
							JOINT joint_17
							{
								OFFSET 33.000038 0.000004 0.000024
								CHANNELS 3 Zrotation Yrotation Xrotation
								JOINT joint_18
								{
									OFFSET 25.200039 0.000009 0.000029
									CHANNELS 3 Zrotation Yrotation Xrotation
									End Site
									{
										OFFSET 0.000000 0.000000 0.000000
									}
								}
							}
						}
					}
					JOINT joint_19
					{
						OFFSET 19.746128 -1.480379 -6.000068
						CHANNELS 3 Zrotation Yrotation Xrotation
						JOINT joint_20
						{
							OFFSET 11.284137 -0.000013 -0.000014
							CHANNELS 3 Zrotation Yrotation Xrotation
							JOINT joint_21
							{
								OFFSET 33.000095 0.000013 0.000009
								CHANNELS 3 Zrotation Yrotation Xrotation
								JOINT joint_22
								{
									OFFSET 25.199757 0.000148 0.000448
									CHANNELS 3 Zrotation Yrotation Xrotation
									End Site
									{
										OFFSET 0.000000 0.000000 0.000000
									}
								}
							}
						}
					}
				}
			}
		}
	}
}
MOTION
Frames: 5
Frame Time: 0.016667
-167.558289 0.000000 316.228973 180.000000 33.184032 180.000000 90.862961 -10.876098 87.632408 -173.344543 0.702924 175.601074 -56.953922 6.402577 7.979927 58.880566 -6.961898 -0.431561 21.454552 0.003094 0.000004 126.755531 -6.059430 -172.378479 -46.943516 -4.011772 2.151160 80.721626 -0.141402 4.501396 21.454552 -0.003104 -0.000014 8.628784 0.867983 -2.814144 7.077754 1.646401 -5.408504 6.717565 1.503773 -5.340290 -24.541687 -1.036440 9.381648 -3.858938 -6.269087 10.418724 -176.165695 -79.157082 -5.422544 -24.359432 49.647762 4.789198 -125.227783 0.160058 3.814880 -0.999833 -9.732968 39.273792 -167.732178 79.406105 13.899712 33.541065 -39.521690 -46.484219 -103.840019 0.224065 -2.967983 0.890204 12.238050 -19.184198 
-163.998169 0.000000 310.869415 180.000000 33.335796 180.000000 90.571396 -9.800858 87.282829 -176.187103 -0.434493 174.917892 -64.507065 6.359995 5.191148 62.130661 -5.065014 -1.625271 21.454557 0.003094 0.000004 128.294907 -6.674378 -171.697983 -52.764431 -4.206371 2.572916 82.117615 -1.404556 0.845273 21.454552 -0.003104 -0.000013 8.812530 0.952541 -2.469432 7.473300 1.798705 -4.673355 7.116448 1.664188 -4.595504 -24.139927 -1.233201 9.179494 -4.604067 -6.328700 10.086234 -176.396194 -78.819908 -5.185808 -21.420202 51.344975 8.041472 -121.835037 -0.065888 3.711263 -0.668462 -9.346313 38.191780 -167.342621 78.283073 14.295195 31.194832 -41.932682 -43.113518 -102.562752 0.346509 -2.922175 0.872212 12.752934 -19.216681 
-160.429123 0.000000 305.448608 180.000000 33.499630 180.000000 90.562256 -8.650065 86.702560 -179.689407 -1.474193 173.541168 -71.964264 6.137114 1.802406 66.268967 -2.246435 -1.852699 21.454557 0.003095 0.000005 130.388824 -7.392483 -170.455658 -59.801849 -5.073000 3.318317 87.760208 -2.565236 -2.676587 21.454548 -0.003104 -0.000013 9.001774 1.000319 -2.085960 7.881979 1.812897 -3.850628 7.533055 1.659350 -3.749568 -23.021965 -2.253811 8.991587 -5.264399 -6.073461 9.442094 -175.337296 -78.183731 -6.277224 -18.695948 52.820255 10.511624 -117.616875 -0.254143 3.560950 -0.562049 -9.289246 38.759258 -167.902832 77.214394 13.692883 27.626307 -44.226620 -38.900845 -101.103035 0.463389 -2.864092 1.384291 12.982919 -19.028555 
-156.833725 0.000000 299.984772 180.000000 33.659565 180.000000 90.408127 -7.563775 86.305504 175.609146 -3.346699 172.815765 -79.489174 5.819322 -0.710177 71.541435 0.074423 -0.999066 21.454557 0.003095 0.000004 134.056442 -7.994258 -170.657547 -64.156731 -5.427608 4.282876 93.257179 -2.699550 -2.559622 21.454548 -0.003105 -0.000014 9.262533 1.078088 -1.701191 8.432703 1.933769 -3.044443 8.094554 1.752226 -2.933448 -22.083376 -3.731428 8.770905 -6.229649 -5.525602 8.508876 -173.801804 -77.285851 -7.844719 -16.257889 54.025425 11.998673 -112.789200 -0.563695 3.373520 0.319020 -8.949853 42.836651 -169.773071 76.042801 11.763809 22.248697 -46.213047 -33.423206 -99.802773 0.797558 -2.826716 1.915868 12.721777 -18.976433 
-153.220871 0.000000 294.478668 180.000000 33.798347 180.000000 89.793015 -6.937348 86.432846 169.020554 -5.829041 173.748703 -86.103706 5.312901 -2.170906 76.891502 1.729911 0.365503 21.454557 0.003093 0.000003 138.246811 -8.770718 -170.897751 -66.396423 -5.715420 5.183939 97.849129 -2.916708 -1.449073 21.454548 -0.003107 -0.000015 9.474355 1.272081 -1.409187 8.888766 2.390655 -2.456286 8.568013 2.236764 -2.346769 -22.212170 -5.373964 8.970432 -6.719872 -5.027721 7.665470 -171.899399 -76.070282 -9.781563 -13.336109 54.967270 13.211943 -108.378647 -0.929399 3.188896 1.366740 -8.741873 50.896416 -172.848145 74.604294 8.624900 14.982955 -47.128754 -26.646503 -98.877342 1.139237 -2.807457 2.031533 12.655340 -18.798063 
